<?xml version="1.0" encoding="utf-8"?>
<!-- Generator: Adobe Illustrator 15.1.0, SVG Export Plug-In . SVG Version: 6.00 Build 0)  -->
<!DOCTYPE svg PUBLIC "-//W3C//DTD SVG 1.1//EN" "http://www.w3.org/Graphics/SVG/1.1/DTD/svg11.dtd">
<svg version="1.1" id="Layer_1" xmlns="http://www.w3.org/2000/svg" xmlns:xlink="http://www.w3.org/1999/xlink" x="0px" y="0px"
	 width="708.661px" height="708.661px" viewBox="0 0 708.661 708.661" enable-background="new 0 0 708.661 708.661"
	 xml:space="preserve">
<g>
	<defs>
		<rect id="SVGID_1_" width="708.661" height="708.661"/>
	</defs>
	<clipPath id="SVGID_2_">
		<use xlink:href="#SVGID_1_"  overflow="visible"/>
	</clipPath>
	<g clip-path="url(#SVGID_2_)">
		<defs>
			<rect id="SVGID_3_" x="89.651" y="89.578" width="529.36" height="529.504"/>
		</defs>
		<clipPath id="SVGID_4_">
			<use xlink:href="#SVGID_3_"  overflow="visible"/>
		</clipPath>
		<path clip-path="url(#SVGID_4_)" fill="none" stroke="#F49AC1" stroke-width="9.554" stroke-linecap="round" d="M213.651,136.13
			C141.895,182.692,94.427,263.518,94.427,355.429c0,74.971,31.582,142.563,82.167,190.204"/>
		<path clip-path="url(#SVGID_4_)" fill="none" stroke="#F49AC1" stroke-width="9.554" stroke-linecap="round" d="M579.654,220.939
			c-44.22-73.493-123.586-123.44-214.839-126.584"/>
		<path clip-path="url(#SVGID_4_)" fill="none" stroke="#F49AC1" stroke-width="9.554" stroke-linecap="round" d="M390.872,614.306
			c109.193-14.713,196.994-96.892,220.07-203.204"/>
		
			<path clip-path="url(#SVGID_4_)" fill="none" stroke="#F49AC1" stroke-width="4.246" stroke-linecap="round" stroke-dasharray="12.058,7.812" d="
			M351.887,94.225c-45.55,0.645-88.28,12.947-125.341,34.058"/>
		
			<path clip-path="url(#SVGID_4_)" fill="none" stroke="#F49AC1" stroke-width="4.246" stroke-linecap="round" stroke-dasharray="12.535,8.289" d="
			M195.15,561.547c41.736,32.547,93.614,52.694,150.098,54.908"/>
		<path clip-path="url(#SVGID_4_)" fill="none" stroke="#F49AC1" stroke-width="4.246" stroke-linecap="round" d="M370.051,616.268
			c2.072-0.11,4.141-0.249,6.2-0.408 M349.39,616.585c2.083,0.049,4.173,0.074,6.267,0.074c2.078,0,4.149-0.024,6.215-0.072
			 M183.925,552.282c1.573,1.374,3.164,2.729,4.77,4.064"/>
		
			<path clip-path="url(#SVGID_4_)" fill="none" stroke="#F49AC1" stroke-width="4.246" stroke-linecap="round" stroke-dasharray="12.895,8.649" d="
			M615.412,383.368c0.603-5.671,1.024-11.396,1.259-17.17"/>
		
			<path clip-path="url(#SVGID_4_)" fill="none" stroke="#F49AC1" stroke-width="4.246" stroke-linecap="round" stroke-dasharray="12.853,8.607" d="
			M616.463,340.402c-2.005-35.353-11.04-68.825-25.729-99.04"/>
		<path clip-path="url(#SVGID_4_)" fill="none" stroke="#F49AC1" stroke-width="4.246" stroke-linecap="round" d="M588.82,237.508
			c-0.968-1.912-1.96-3.811-2.975-5.697 M616.811,361.876c0.051-2.145,0.077-4.292,0.077-6.447c0-2.148-0.026-4.291-0.077-6.426
			 M613.383,398.326c0.35-2.116,0.674-4.241,0.973-6.374"/>
		<path clip-path="url(#SVGID_4_)" fill="#F8C1D9" d="M355.658,592.911c131.157,0,237.48-106.324,237.48-237.482
			c0-131.158-106.323-237.482-237.48-237.482c-131.158,0-237.482,106.324-237.482,237.482
			C118.176,486.587,224.5,592.911,355.658,592.911"/>
	</g>
	<g clip-path="url(#SVGID_2_)">
		<defs>
			<path id="SVGID_5_" d="M118.175,355.428c0,131.159,106.326,237.483,237.483,237.483S593.14,486.587,593.14,355.428
				c0-131.158-106.324-237.482-237.481-237.482S118.175,224.27,118.175,355.428"/>
		</defs>
		<clipPath id="SVGID_6_">
			<use xlink:href="#SVGID_5_"  overflow="visible"/>
		</clipPath>
		<g opacity="0.7" clip-path="url(#SVGID_6_)">
			<g>
				<defs>
					<rect id="SVGID_7_" x="307.917" y="157.655" width="327.525" height="437.222"/>
				</defs>
				<clipPath id="SVGID_8_">
					<use xlink:href="#SVGID_7_"  overflow="visible"/>
				</clipPath>
				<g clip-path="url(#SVGID_8_)">
					<defs>
						<rect id="SVGID_9_" x="307.917" y="157.656" width="327.525" height="437.221"/>
					</defs>
					<clipPath id="SVGID_10_">
						<use xlink:href="#SVGID_9_"  overflow="visible"/>
					</clipPath>
					<path clip-path="url(#SVGID_10_)" fill="#F4B5CB" d="M468.256,593.877c86.672-39.414,148.979-123.013,158.188-222.025
						L397.559,164.656l-80.642,98.525l37.795,37.161l-0.016,70.345L468.256,593.877z"/>
				</g>
			</g>
		</g>
		<polygon clip-path="url(#SVGID_6_)" fill="#9A6040" points="283.711,271.02 283.711,367.336 355.461,362.642 355.461,266.322 		
			"/>
		<polygon clip-path="url(#SVGID_6_)" fill="#9A6040" points="427.231,261.625 355.461,266.322 355.461,362.642 427.231,357.942 		
			"/>
		<path clip-path="url(#SVGID_6_)" fill="#FEDCBA" d="M376.839,348.886v-23.553h-42.477v23.553c0,1.879-1.523,3.404-3.403,3.404
			h-29.271v81.276h107.824v-81.276H380.24C378.361,352.291,376.839,350.768,376.839,348.886"/>
		<path clip-path="url(#SVGID_6_)" fill="#FEDCBA" d="M409.512,352.29H380.24c-1.879,0-3.403-1.523-3.403-3.404v-23.552h-21.374
			v108.233h54.049V352.29z"/>
		<path clip-path="url(#SVGID_6_)" fill="#FEDCBA" d="M286.809,259.006c9.375,0,16.974,7.6,16.974,16.974
			c0,9.375-7.599,16.975-16.974,16.975s-16.975-7.6-16.975-16.975C269.834,266.605,277.434,259.006,286.809,259.006"/>
		<path clip-path="url(#SVGID_6_)" fill="#FEDCBA" d="M424.39,259.006c9.375,0,16.976,7.6,16.976,16.974
			c0,9.375-7.601,16.975-16.976,16.975s-16.974-7.6-16.974-16.975C407.416,266.605,415.015,259.006,424.39,259.006"/>
		<path clip-path="url(#SVGID_6_)" fill="#FEE0C2" d="M357.512,346.674h-3.825c-35.381,0-64.064-28.681-64.064-64.063v-58.493
			c0-35.381,28.683-64.064,64.062-64.064h3.825c35.382,0,64.064,28.681,64.064,64.063v58.492
			C421.577,317.994,392.894,346.674,357.512,346.674"/>
		<path clip-path="url(#SVGID_6_)" fill="#FEE0C2" d="M357.512,160.054h-2.049v186.62h2.049c35.382,0,64.063-28.683,64.063-64.064
			v-58.493C421.577,188.737,392.894,160.054,357.512,160.054"/>
		<path clip-path="url(#SVGID_6_)" fill="#9A6040" d="M414.629,181.704c-12.583-17.922-33.392-29.647-56.953-29.647h-4.154
			c-38.414,0-69.811,31.142-69.811,69.557v5.379v92.532h10.467v-72.271h-0.007c30.987-3.148,61.457-9.228,88.162-22.578
			c9.611,11.037,20.708,20.89,32.96,28.885v65.964h11.937v-80.166v-17.747C427.231,206.758,422.56,193.003,414.629,181.704"/>
		<path clip-path="url(#SVGID_6_)" fill="#9A6040" d="M414.629,181.704c-12.583-17.922-33.392-29.647-56.953-29.647h-2.214v83.391
			c9.275-2.937,18.271-6.472,26.871-10.774c9.611,11.037,20.708,20.89,32.96,28.886v65.963h11.937v-80.164v-17.745
			C427.231,206.758,422.56,193.003,414.629,181.704"/>
		<path clip-path="url(#SVGID_6_)" fill="#F16474" d="M344.79,605.116c48.178,0,118.509-30.763,156.578-54.516
			c-8.066-45.946-35.403-116.418-37.945-149.027c-2.117-27.136-22.064-49.284-49.284-49.282h-22.598
			c0,19.85-16.092,63.205-35.942,63.205c-19.849,0-35.94-43.355-35.94-63.205h-22.6c-27.218,0-47.167,22.146-49.283,49.284
			c-2.543,32.61-29.205,100.266-37.271,146.213C248.575,571.54,296.612,605.116,344.79,605.116"/>
		<path clip-path="url(#SVGID_6_)" fill="#F4B5CB" d="M355.6,447.275c-50.482,0-91.407,40.924-91.407,91.407
			c0,15.267,3.764,29.648,10.382,42.301c21.279,18.641,52.818,22.788,81.025,22.788s62.12-10.861,81.024-22.788
			c6.618-12.652,10.383-27.034,10.383-42.301C447.007,488.199,406.081,447.275,355.6,447.275"/>
		<path clip-path="url(#SVGID_6_)" fill="#F4B5CB" d="M447.006,538.682c0-50.481-40.924-91.406-91.407-91.406v145.882
			c28.207,0,55.415-4.265,81.024-12.173C443.243,568.33,447.006,553.95,447.006,538.682"/>
		<path clip-path="url(#SVGID_6_)" fill="#F16474" d="M298.355,514.63c0-15.808,12.815-28.62,28.622-28.62
			s28.623,12.813,28.623,28.62c0-15.808,12.815-28.62,28.622-28.62c15.808,0,28.622,12.813,28.622,28.62
			c0,27.367-57.244,63.113-57.244,63.113S298.355,543.539,298.355,514.63"/>
		<path clip-path="url(#SVGID_6_)" fill="#F16474" d="M407.422,523.316c0-14.311-11.602-25.91-25.911-25.91
			c-14.307,0-25.904,11.595-25.911,25.897v54.424C355.613,577.718,407.422,548.087,407.422,523.316"/>
		<path clip-path="url(#SVGID_6_)" fill="#4B4F59" d="M355.439,299.704c-3.655,0-7.187-1.532-9.69-4.203
			c-1.212-1.294-1.146-3.325,0.147-4.537c1.293-1.213,3.326-1.146,4.537,0.147c1.313,1.402,3.09,2.173,5.006,2.173
			c1.915,0,3.692-0.771,5.006-2.173c1.211-1.293,3.242-1.359,4.537-0.147c1.293,1.212,1.358,3.243,0.146,4.537
			C362.627,298.172,359.094,299.704,355.439,299.704"/>
		<path clip-path="url(#SVGID_6_)" fill="#4B4F59" d="M330.395,280.438c-1.773,0-3.21-1.437-3.21-3.21
			c0-1.687-1.372-3.059-3.059-3.059s-3.059,1.373-3.059,3.059c0,1.773-1.437,3.21-3.21,3.21s-3.21-1.437-3.21-3.21
			c0-5.227,4.253-9.479,9.479-9.479c5.227,0,9.479,4.253,9.479,9.479C333.604,279.001,332.167,280.438,330.395,280.438"/>
		<path clip-path="url(#SVGID_6_)" fill="#4B4F59" d="M393.022,280.438c-1.773,0-3.21-1.437-3.21-3.21
			c0-1.687-1.372-3.059-3.06-3.059c-1.687,0-3.059,1.373-3.059,3.059c0,1.773-1.438,3.21-3.21,3.21c-1.773,0-3.21-1.437-3.21-3.21
			c0-5.227,4.252-9.479,9.479-9.479c5.228,0,9.479,4.253,9.479,9.479C396.232,279.001,394.795,280.438,393.022,280.438"/>
	</g>
</g>
</svg>
